<svg width="30" height="28" viewBox="0 0 30 28" fill="none" xmlns="http://www.w3.org/2000/svg">
<path d="M0.778867 12.6543L0.778875 12.6543C0.503421 13.042 0.422297 13.5421 0.579111 14.0028C0.579217 14.0031 0.579323 14.0034 0.579429 14.0037L4.52004 25.6832L4.52031 25.684C4.72557 26.2891 5.29423 26.6982 5.93353 26.6982H24.0588C24.702 26.6982 25.2693 26.2865 25.4725 25.6797L0.778867 12.6543ZM0.778867 12.6543L0.780684 12.6518M0.778867 12.6543L0.780684 12.6518M0.780684 12.6518C1.06142 12.2617 1.51306 12.0309 1.9938 12.0309H27.98C28.4612 12.0309 28.9091 12.263 29.1911 12.6488L29.1911 12.6488M0.780684 12.6518L29.1911 12.6488M29.1911 12.6488L29.195 12.6543M29.1911 12.6488L29.195 12.6543M29.195 12.6543C29.4712 13.0431 29.5494 13.5427 29.3952 14L29.195 12.6543ZM29.3949 14.001L25.4727 25.6791L29.3949 14.001ZM4.07412 15.0172L7.0073 23.712H22.9845L25.9036 15.0172H4.07412Z" fill="#1D3457" stroke="#1D3457"/>
<path d="M10.3071 8.16242C10.3071 8.98722 9.64135 9.65625 8.81467 9.65625C7.988 9.65625 7.32227 8.98722 7.32227 8.16242C7.32227 3.93503 10.7598 0.499151 14.987 0.499151C19.2127 0.499151 22.6502 3.9351 22.6502 8.16242C22.6502 8.98722 21.9845 9.65625 21.1578 9.65625C20.333 9.65625 19.6654 8.98769 19.6654 8.16242C19.6654 5.58379 17.5656 3.48396 14.987 3.48396C12.4068 3.48396 10.3071 5.58388 10.3071 8.16242Z" fill="#1D3457" stroke="#1D3457"/>
</svg>
